<svg width="394" height="107"><defs id="SvgjsDefs2569"></defs><g id="SvgjsG2570" featurekey="root" fill="#000000"></g><g id="SvgjsG2571" featurekey="symbol1" fill="#ffffff" transform="matrix(1.4583333730697632,0,0,1.4583333730697632,10,21)"><g><path d="M35.4,27.1c-1.2-1.2-3.1-1.2-4.3,0l-0.8,0.8l-3-3c2.1-2.6,3.3-5.9,3.3-9.5C30.7,6.9,23.9,0,15.4,0C6.9,0,0,6.9,0,15.4   c0,8.5,6.9,15.4,15.4,15.4c3.6,0,6.9-1.3,9.5-3.3l3,3l-0.8,0.8c-1.2,1.2-1.2,3.1,0,4.3l1.6,1.6l8.3-8.3L35.4,27.1z M15.4,26.7   C9.1,26.7,4,21.6,4,15.4S9.1,4,15.4,4s11.4,5.1,11.4,11.4S21.6,26.7,15.4,26.7z"></path><path d="M47.1,38.8l-8.7-8.7l-8.3,8.3l8.7,8.7c1.2,1.2,3.1,1.2,4.3,0l4-4C48.3,41.9,48.3,40,47.1,38.8z"></path><path d="M24.6,14.4c-4.8-0.5-8.6,1.8-10,5.6c-1.1-3.5-4.3-5.7-8.5-5.2C5.5,20,9,23.7,13.9,23.7c0,0.1,0,0.1,0,0.2   c0.1,0,0.3-0.1,0.5-0.2c0.7-0.3,1.7-0.8,2.6-1.4c0.9-0.6,1.7-1.4,2.2-2.1c0.5-0.6,0.8-1.1,0.8-1.1s-0.2,0.5-0.6,1.3   c-0.4,0.8-1,1.7-1.8,2.6c-0.8,0.9-1.7,1.6-2.5,2.1c0,0-0.1,0.1-0.1,0.1C21.1,25.3,25.3,20.7,24.6,14.4z M11.9,21.9   c-0.7-0.7-1.2-1.5-1.5-2.1c-0.3-0.6-0.5-1.1-0.5-1.1s0.2,0.4,0.7,0.9c0.4,0.5,1.1,1.2,1.8,1.7c0.5,0.4,1.1,0.7,1.6,0.9   c-0.1,0.4-0.1,0.9-0.1,1.3C13.3,23.2,12.6,22.6,11.9,21.9z"></path></g></g><g id="SvgjsG2572" featurekey="text1" fill="#ffffff" transform="matrix(4.462098121643066,0,0,4.462098121643066,98.30440067131241,-22.216350941280623)"><path d="M7.88 10.1 l1 0 c0.22 2.6 -0.7 4.78 -1.66 6.6 c-0.9 1.66 -2.16 3.9 -3.12 4.98 c-1.14 1.32 -2.26 2 -3.3 2 c-0.14 0 -0.28 -0.02 -0.42 -0.04 l0.18 -0.98 c0.08 0 0.16 0.02 0.24 0.02 c0.92 0 1.88 -0.88 2.54 -1.64 c0.24 -0.28 0.52 -0.64 0.82 -1.1 c-0.02 -0.02 -0.02 -0.04 -0.02 -0.04 c-0.14 -0.26 -0.3 -0.52 -0.48 -0.8 c-1.32 -2.22 -3.26 -5.46 -2.92 -9 l1.02 0 c-0.36 3.26 1.5 6.36 2.76 8.5 c0.08 0.14 0.16 0.26 0.24 0.4 c0.48 -0.78 1 -1.72 1.58 -2.78 c0.94 -1.78 1.78 -3.76 1.54 -6.12 z M17.46 11.36 c0.66 0.88 0.98 2.12 0.98 3.68 s-0.32 2.8 -0.98 3.68 c-0.34 0.48 -0.8 0.84 -1.32 1.08 c-0.52 0.26 -1.14 0.38 -1.82 0.38 s-1.3 -0.12 -1.82 -0.38 c-0.52 -0.24 -0.96 -0.6 -1.32 -1.08 c-0.66 -0.88 -0.98 -2.12 -0.98 -3.68 s0.32 -2.8 0.98 -3.68 c0.36 -0.48 0.8 -0.84 1.32 -1.08 c0.52 -0.26 1.14 -0.38 1.82 -0.38 s1.3 0.12 1.82 0.38 c0.52 0.24 0.98 0.6 1.32 1.08 z M16.66 18.12 c0.52 -0.7 0.78 -1.74 0.78 -3.08 s-0.26 -2.38 -0.78 -3.08 s-1.3 -1.06 -2.34 -1.06 c-1.02 0 -1.82 0.36 -2.34 1.06 s-0.78 1.74 -0.78 3.08 s0.26 2.38 0.78 3.08 s1.32 1.06 2.34 1.06 c1.04 0 1.82 -0.36 2.34 -1.06 z M27.200000000000003 20 l-1 0 l0 -1.38 c-0.7 0.84 -1.7 1.44 -2.76 1.56 c-0.1 0 -0.24 0.02 -0.38 0.02 c-0.6 0 -1.52 -0.14 -2.24 -0.8 c-0.68 -0.62 -1.04 -1.54 -1.04 -2.74 l0 -6.56 l1 0 l0 6.56 c0 0.92 0.24 1.58 0.7 2 c0.64 0.58 1.58 0.54 1.86 0.52 c1.44 -0.14 2.86 -1.68 2.86 -3.08 l0 -6 l1 0 l0 9.9 z M35.66 8.22 l-5.46 0 l0 4.62 l5.12 0 l0 1 l-5.12 0 l0 6.16 l-1 0 l0 -12.78 l0.5 0 l0.5 0 l5.46 0 l0 1 z M45.28 18.52 c0.42 0.36 0.68 0.9 0.68 1.48 l-1 0 c0 -0.28 -0.14 -0.62 -0.44 -0.8 c-0.42 -0.22 -1.04 -0.1 -1.78 0.38 c-0.66 0.4 -1.32 0.6 -1.94 0.6 c-0.22 0 -0.42 -0.02 -0.6 -0.06 c-0.72 -0.16 -1.34 -0.62 -1.76 -1.28 c-0.46 -0.72 -0.66 -1.64 -0.54 -2.5 c0.14 -0.96 0.64 -1.76 1.44 -2.28 c0.62 -0.4 1.34 -0.62 2.06 -0.64 c0.68 0 1.36 0.16 1.96 0.48 c0.34 0.18 0.66 0.42 0.92 0.68 l0 -1.08 c0 -1.1 -0.28 -1.86 -0.82 -2.26 c-1.14 -0.8 -3.26 -0.06 -4.3 0.3 c-0.14 0.06 -0.28 0.1 -0.38 0.14 l-0.3 -0.96 c0.1 -0.02 0.22 -0.08 0.36 -0.12 c1.18 -0.42 3.64 -1.26 5.18 -0.16 c0.84 0.58 1.26 1.62 1.26 3.06 l0 5.02 z M42.199999999999996 18.72 c0.88 -0.54 1.56 -0.66 2.08 -0.62 l0 -1.14 c0 -0.9 -0.52 -1.7 -1.4 -2.18 c-0.96 -0.52 -2.08 -0.48 -3 0.12 c-1.2 0.78 -1.26 2.38 -0.6 3.4 c0.64 1 1.74 1.16 2.92 0.42 z M51.14 10.88 c-1.44 0.14 -2.86 1.66 -2.86 3.08 l0 6.04 l-1 0 l0 -9.9 l1 0 l0 1.32 c0.7 -0.84 1.7 -1.44 2.76 -1.54 z M65.32 10.7 c0.68 0.62 1.02 1.54 1.02 2.74 l0 6.56 l-1 0 l0 -6.56 c0 -0.9 -0.24 -1.58 -0.7 -1.98 c-0.64 -0.6 -1.58 -0.56 -1.86 -0.52 c-1.44 0.14 -2.84 1.66 -2.84 3.08 l0 5.98 l-1 0 l0 -6.56 c0 -0.9 -0.24 -1.58 -0.7 -1.98 c-0.64 -0.6 -1.58 -0.56 -1.86 -0.52 c-1.44 0.14 -2.86 1.66 -2.86 3.08 l0 5.98 l-1 0 l0 -9.9 l1 0 l0 1.38 c0.7 -0.84 1.7 -1.44 2.76 -1.54 c0.48 -0.04 1.7 -0.06 2.62 0.76 c0.34 0.32 0.6 0.68 0.76 1.14 c0.7 -1.02 1.84 -1.78 3.04 -1.9 c0.48 -0.04 1.7 -0.06 2.62 0.76 z"></path></g><g id="SvgjsG2573" featurekey="text3" fill="#ffffff" transform="matrix(0.5399048924446106,0,0,0.5399048924446106,99.62046082453539,93.20206251726691)"><path d="M11.904 13.086375 q-0.654296875 -1.11328125 -1.733398438 -1.748046875 t-2.4072 -0.63477 q-1.1328125 0 -2.0703125 0.478515625 t-1.6064 1.2842 t-1.04 1.8652 t-0.37109 2.2314 q0 1.38671875 0.41015625 2.456054688 t1.0693 1.7773 t1.5674 1.1816 t2.041 0.47363 q1.54296875 0 2.685546875 -0.7470703125 t1.9531 -2.4561 l1.7188 0.81055 q-0.37109375 1.0546875 -1.259765625 2.036132813 t-2.1924 1.582 t-2.8857 0.60059 q-1.513671875 0 -2.783203125 -0.5712890625 t-2.2607 -1.626 t-1.5137 -2.5 t-0.52246 -3.0176 q0 -1.58203125 0.5224609375 -2.98828125 t1.4648 -2.4463 t2.2461 -1.6406 t2.8271 -0.60059 q1.357421875 0 2.34375 0.3857421875 t1.6748 0.91797 t1.1865 1.1572 l1.0352 0 l0 1.7383 l-2.0996 0 z M22.539028125 24.277345 q-1.533203125 0 -2.802734375 -0.5712890625 t-2.2656 -1.626 t-1.5137 -2.5 t-0.51758 -2.998 q0 -1.6015625 0.5224609375 -3.0078125 t1.4648 -2.4463 t2.2461 -1.6406 t2.8662 -0.60059 q1.572265625 0 2.880859375 0.6005859375 t2.2461 1.6406 t1.4551 2.4463 t0.51758 3.0078 t-0.52246 3.0029 t-1.4648 2.4463 t-2.2461 1.6455 t-2.8662 0.60059 z M22.539028125 22.460975 q1.162109375 0 2.104492188 -0.478515625 t1.6064 -1.2842 t1.0254 -1.8701 t0.36133 -2.2461 q0 -1.2109375 -0.3955078125 -2.338867188 t-1.1035 -1.9092 t-1.6455 -1.2061 t-1.9531 -0.4248 q-1.162109375 0 -2.109375 0.478515625 t-1.6113 1.2842 t-1.0254 1.875 t-0.36133 2.2412 q0 1.3671875 0.400390625 2.436523438 t1.0596 1.7773 t1.5723 1.1865 t2.0752 0.47852 z M40.88903125 9.179375 l4.8047 0 l0 1.6895 l-1.2598 0 l0 13.115 l-2.5 0 l-6.8848 -12.275 l0 10.596 l1.5234 0 l0 1.6797 l-4.8047 0 l0 -1.6797 l1.3672 0 l0 -11.436 l-1.4063 0 l0 -1.709 l3.9844 0 l6.7578 12.158 l0.078125 -0.46875 l0 -9.9805 l-1.6602 0 l0 -1.6895 z M56.74840625 9.179375 l4.8047 0 l0 1.6895 l-1.2598 0 l0 13.115 l-2.5 0 l-6.8848 -12.275 l0 10.596 l1.5234 0 l0 1.6797 l-4.8047 0 l0 -1.6797 l1.3672 0 l0 -11.436 l-1.4063 0 l0 -1.709 l3.9844 0 l6.7578 12.158 l0.078125 -0.46875 l0 -9.9805 l-1.6602 0 l0 -1.6895 z M63.44728125 9.179375 l10.605 0 l0 4.1895 l-2.002 0 l0 -2.5 l-5.2832 0 l0 4.7363 l4.4434 0 l0 1.6797 l-4.4434 0 l0 5.0195 l5.2832 0 l0 -2.5 l2.002 0 l0 4.1797 l-10.605 0 l0 -1.6797 l1.4063 0 l0 -11.436 l-1.4063 0 l0 -1.6895 z M86.513375 13.086375 q-0.654296875 -1.11328125 -1.733398438 -1.748046875 t-2.4072 -0.63477 q-1.1328125 0 -2.0703125 0.478515625 t-1.6064 1.2842 t-1.04 1.8652 t-0.37109 2.2314 q0 1.38671875 0.41015625 2.456054688 t1.0693 1.7773 t1.5674 1.1816 t2.041 0.47363 q1.54296875 0 2.685546875 -0.7470703125 t1.9531 -2.4561 l1.7188 0.81055 q-0.37109375 1.0546875 -1.259765625 2.036132813 t-2.1924 1.582 t-2.8857 0.60059 q-1.513671875 0 -2.783203125 -0.5712890625 t-2.2607 -1.626 t-1.5137 -2.5 t-0.52246 -3.0176 q0 -1.58203125 0.5224609375 -2.98828125 t1.4648 -2.4463 t2.2461 -1.6406 t2.8271 -0.60059 q1.357421875 0 2.34375 0.3857421875 t1.6748 0.91797 t1.1865 1.1572 l1.0352 0 l0 1.7383 l-2.0996 0 z M93.769503125 22.304675 l1.3574 0 l0 -11.523 l-3.3789 0 l0 2.3047 l-2.002 0 l0 -3.9063 l13.203 0 l0 3.9063 l-2.002 0 l0 -2.3047 l-3.9063 0 l0 11.523 l1.5234 0 l0 1.6797 l-4.7949 0 l0 -1.6797 z M103.349609375 23.984375 z M127.822609375 9.179375 l4.8047 0 l0 1.6895 l-1.2891 0 l-4.2285 13.115 l-2.9883 0 l-4.0137 -12.9 l-3.7012 12.9 l-2.959 0 l-4.3164 -13.115 l-1.3086 0 l0 -1.6895 l4.8047 0 l0 1.6895 l-1.2891 0 l3.584 11.377 l3.7793 -13.066 l2.9199 0 l4.0234 13.066 l3.6523 -11.377 l-1.4746 0 l0 -1.6895 z M134.121109375 9.179375 l4.7266 0 l0 1.6895 l-1.4063 0 l0 11.436 l1.4063 0 l0 1.6797 l-4.7266 0 l0 -1.6797 l1.4063 0 l0 -11.436 l-1.4063 0 l0 -1.6895 z M144.667940625 22.304675 l1.3574 0 l0 -11.523 l-3.3789 0 l0 2.3047 l-2.002 0 l0 -3.9063 l13.203 0 l0 3.9063 l-2.002 0 l0 -2.3047 l-3.9063 0 l0 11.523 l1.5234 0 l0 1.6797 l-4.7949 0 l0 -1.6797 z M166.045046875 9.179375 l4.8047 0 l0 1.6797 l-1.4063 0 l0 11.445 l1.4063 0 l0 1.6797 l-4.8047 0 l0 -1.6797 l1.4844 0 l0 -5.3223 l-8.5645 0 l0 5.3223 l1.4844 0 l0 1.6797 l-4.8047 0 l0 -1.6797 l1.4063 0 l0 -11.445 l-1.4063 0 l0 -1.6797 l4.8047 0 l0 1.6797 l-1.4844 0 l0 4.4824 l8.5645 0 l0 -4.4824 l-1.4844 0 l0 -1.6797 z M172.24609375 23.984375 z M186.77709375 22.304675 l1.2305 0 l-1.1719 -3.3594 l-5.6934 0 l-1.1426 3.3594 l1.5234 0 l0 1.6797 l-4.8047 0 l0 -1.6797 l1.2891 0 l4.6094 -13.125 l2.8809 0 l4.5996 13.125 l1.4844 0 l0 1.6797 l-4.8047 0 l0 -1.6797 z M181.69919375 17.324175 l4.5703 0 l-2.3047 -6.6211 z M204.5016875 24.042969 l0 -2.9688 q-0.37109375 0.771484375 -0.927734375 1.342773438 t-1.2402 0.94238 t-1.46 0.55664 t-1.5771 0.18555 q-1.4453125 0 -2.666015625 -0.4833984375 t-2.2119 -1.5381 t-1.5137 -2.5 t-0.52246 -3.0176 q0 -1.58203125 0.5224609375 -2.98828125 t1.4648 -2.4512 t2.2461 -1.6406 t2.8271 -0.5957 q1.40625 0 2.416992188 0.400390625 t1.7285 0.97168 t1.1475 1.0889 l0.94727 0 l0 1.7383 l-2.0996 0 q-0.654296875 -1.11328125 -1.733398438 -1.7578125 t-2.417 -0.625 q-1.123046875 0 -2.060546875 0.478515625 t-1.6064 1.2891 t-1.04 1.8652 t-0.37109 2.2266 q0 1.298828125 0.41015625 2.412109375 t1.0449 1.8066 t1.5674 1.1475 t2.0654 0.4541 q1.875 0 3.076171875 -0.9130859375 t1.6797 -2.8467 l-4.1406 0 l0 -1.6797 l6.2598 0 l0 7.0996 l-1.8164 0 z M209.511734375 9.179375 l6.1621 0 q0.986328125 0 1.821289063 0.2587890625 t1.4453 0.76172 t0.95215 1.2549 t0.3418 1.7285 q0 0.556640625 -0.2001953125 1.098632813 t-0.55664 1.0059 t-0.84473 0.8252 t-1.0645 0.55664 q0.244140625 0.107421875 0.4931640625 0.3076171875 t0.46875 0.48828 t0.40039 0.6543 t0.28809 0.78613 l0.82031 3.2227 l1.2793 0 l0.019531 1.8555 l-2.8809 0 l-1.1035 -4.502 q-0.302734375 -1.2109375 -0.9228515625 -1.782226563 t-1.6943 -0.57129 l-1.9043 0 l0 5.1758 l1.4844 0 l0 1.6797 l-4.8047 0 l0 -1.6797 l1.4063 0 l0 -11.436 l-1.4063 0 l0 -1.6895 z M212.832034375 10.869375 l0 4.6582 l2.8418 0 q0.556640625 0 1.020507813 -0.146484375 t0.80078 -0.43945 t0.52734 -0.72754 t0.19043 -1.0107 q0 -1.103515625 -0.6640625 -1.71875 t-2.1094 -0.61523 l-2.6074 0 z M223.750015625 9.179375 l4.7266 0 l0 1.6895 l-1.4063 0 l0 11.436 l1.4063 0 l0 1.6797 l-4.7266 0 l0 -1.6797 l1.4063 0 l0 -11.436 l-1.4063 0 l0 -1.6895 z M241.777046875 13.086375 q-0.654296875 -1.11328125 -1.733398438 -1.748046875 t-2.4072 -0.63477 q-1.1328125 0 -2.0703125 0.478515625 t-1.6064 1.2842 t-1.04 1.8652 t-0.37109 2.2314 q0 1.38671875 0.41015625 2.456054688 t1.0693 1.7773 t1.5674 1.1816 t2.041 0.47363 q1.54296875 0 2.685546875 -0.7470703125 t1.9531 -2.4561 l1.7188 0.81055 q-0.37109375 1.0546875 -1.259765625 2.036132813 t-2.1924 1.582 t-2.8857 0.60059 q-1.513671875 0 -2.783203125 -0.5712890625 t-2.2607 -1.626 t-1.5137 -2.5 t-0.52246 -3.0176 q0 -1.58203125 0.5224609375 -2.98828125 t1.4648 -2.4463 t2.2461 -1.6406 t2.8271 -0.60059 q1.357421875 0 2.34375 0.3857421875 t1.6748 0.91797 t1.1865 1.1572 l1.0352 0 l0 1.7383 l-2.0996 0 z M245.712875 9.179375 l4.7949 0 l0 1.6895 l-1.5137 0 l0 6.8945 q0 1.240234375 0.2783203125 2.114257813 t0.77148 1.4258 t1.1719 0.80566 t1.4893 0.25391 q0.83984375 0 1.54296875 -0.224609375 t1.2061 -0.75684 t0.78125 -1.416 t0.27832 -2.2021 l0 -6.8945 l-1.6016 0 l0 -1.6895 l4.7949 0 l0 1.6895 l-1.3184 0 l0 6.6797 q0 1.6015625 -0.4443359375 2.841796875 t-1.2158 2.0801 t-1.8164 1.2744 t-2.2461 0.43457 q-1.171875 0 -2.192382813 -0.4296875 t-1.7773 -1.2598 t-1.1914 -2.0264 t-0.43457 -2.7393 l0 -6.8555 l-1.3574 0 l0 -1.6895 z M261.14259375 9.179375 l4.8047 0 l0 1.6895 l-1.4844 0 l0 11.436 l5.1074 0 q0.15625 0 0.3125 -0.0732421875 t0.2832 -0.19043 t0.20508 -0.26855 t0.078125 -0.30762 l0 -1.8652 l1.8555 0 l0 4.3848 l-11.162 0 l0 -1.6797 l1.4063 0 l0 -11.436 l-1.4063 0 l0 -1.6895 z M276.82614375 22.304675 l1.3574 0 l0 -11.523 l-3.3789 0 l0 2.3047 l-2.002 0 l0 -3.9063 l13.203 0 l0 3.9063 l-2.002 0 l0 -2.3047 l-3.9063 0 l0 11.523 l1.5234 0 l0 1.6797 l-4.7949 0 l0 -1.6797 z M287.50975 9.179375 l4.7949 0 l0 1.6895 l-1.5137 0 l0 6.8945 q0 1.240234375 0.2783203125 2.114257813 t0.77148 1.4258 t1.1719 0.80566 t1.4893 0.25391 q0.83984375 0 1.54296875 -0.224609375 t1.2061 -0.75684 t0.78125 -1.416 t0.27832 -2.2021 l0 -6.8945 l-1.6016 0 l0 -1.6895 l4.7949 0 l0 1.6895 l-1.3184 0 l0 6.6797 q0 1.6015625 -0.4443359375 2.841796875 t-1.2158 2.0801 t-1.8164 1.2744 t-2.2461 0.43457 q-1.171875 0 -2.192382813 -0.4296875 t-1.7773 -1.2598 t-1.1914 -2.0264 t-0.43457 -2.7393 l0 -6.8555 l-1.3574 0 l0 -1.6895 z M302.93946875 9.179375 l6.1621 0 q0.986328125 0 1.821289063 0.2587890625 t1.4453 0.76172 t0.95215 1.2549 t0.3418 1.7285 q0 0.556640625 -0.2001953125 1.098632813 t-0.55664 1.0059 t-0.84473 0.8252 t-1.0645 0.55664 q0.244140625 0.107421875 0.4931640625 0.3076171875 t0.46875 0.48828 t0.40039 0.6543 t0.28809 0.78613 l0.82031 3.2227 l1.2793 0 l0.019531 1.8555 l-2.8809 0 l-1.1035 -4.502 q-0.302734375 -1.2109375 -0.9228515625 -1.782226563 t-1.6943 -0.57129 l-1.9043 0 l0 5.1758 l1.4844 0 l0 1.6797 l-4.8047 0 l0 -1.6797 l1.4063 0 l0 -11.436 l-1.4063 0 l0 -1.6895 z M306.25976875 10.869375 l0 4.6582 l2.8418 0 q0.556640625 0 1.020507813 -0.146484375 t0.80078 -0.43945 t0.52734 -0.72754 t0.19043 -1.0107 q0 -1.103515625 -0.6640625 -1.71875 t-2.1094 -0.61523 l-2.6074 0 z M317.17775 9.179375 l10.605 0 l0 4.1895 l-2.002 0 l0 -2.5 l-5.2832 0 l0 4.7363 l4.4434 0 l0 1.6797 l-4.4434 0 l0 5.0195 l5.2832 0 l0 -2.5 l2.002 0 l0 4.1797 l-10.605 0 l0 -1.6797 l1.4063 0 l0 -11.436 l-1.4063 0 l0 -1.6895 z"></path></g></svg>
